<?xml version="1.0" encoding="UTF-8"?>
<svg version="1.1" viewBox="0 0 2048 691" width="711" height="240" xmlns="http://www.w3.org/2000/svg">
<path transform="translate(1183,79)" d="m0 0 10 1 8 4 6 7 2 6 1 10v14l-2 22-4 20-2 15-7 30-8 21-5 9-1 8-3 7-4 13-7 15-5 12-8 17-12 19-10 15-20 26-9 10-8 10-5 5h-2l-3 9 11-7 33-22 14-9 14-7h10l2 3-1 7-4 6-27 16-16 11-19 14-15 10-1 5 5 6 4 1h25l17-4 24-9 27-12 32-16 35-20 9-7 4-1v3l-12 12-10 7-17 8-21 12-30 15-21 7-1 1 5 4v2l-5-2 1 3 9-2 28-13 16-9 15-10 16-9 2 1-9 8-23 15-16 9-41 20-16 5-20 4h-20l-10-4-7-8-3-5-2-1-1 11-8 78-3 18-5 9-4 5-7 1-5-3-2-3v-23l6-53 6-44 2-20-9-2-1-2 7-9 6-7 5-33 7-34 3-6 1-9 4-21 4-13 4-11 2-10 3-14 4-16 5-11 3-13 6-12 4-13 4-8 8-20 6-12 15-25 10-15 8-11 9-8zm5 13-5 4-15 20-9 14-16 31-11 24-5 12-18 58-9 32-5 24-8 49v4l4-2 7-7 10-13 12-18 11-19 12-23 9-19 10-26 12-34 7-24 6-26 4-33v-28zm3 66-2 4-1 6v11l3-3 1-6v-12zm-20 60-16 41-11 25-11 22-13 22-8 12-10 13-14 17-2 4 1 3 7-6 7-8 14-18 14-21 6-10 8-16 14-31 10-27 5-19zm-83 164 2 4 1-3z" fill="#15AEA1"/>
<path transform="translate(707,47)" d="m0 0 6 1 6 4 5 6 3 10v13l-1 11 1 7-8 32-5 19-7 27-8 25-4 15h43l8 1 50 2 23 5 10 3 2 2v3l-21 2-11 1-2-1v-2l5-1 1-2 10 1v-2l-10-1-3-1-11-1-31-1-8-1v6l10-1 1-2 3 1 1 2 30 2-1 5h-104l-5 13-12 40-17 47-12 31-9 17-10 18-6 15-3 13-2 21-1 24v21l3 22 4 14 7 11 2 4h-6l-9-6-7-8-6-13-5-20-2-21v-13l2-9-1-16 2-8v-19l-2-4 1-5 5-8 5-17 6-30-4 17-2 2 1-11 7-34 9-37 9-35 2-10-17 2-16 3h-15l-5-4-1-3v-7l3-7 3-3 37-5 19-2 6-18 7-25 9-29 11-37 5-16 6-16 8-15 9-11zm2 25-7 14-9 24-17 59-13 45v4h7l5-1 9-29 15-50 8-32 4-27v-7zm8 19 1 4zm-1 4-3 12-9 27-10 35-10 31-4 14v3h6l12-36 6-22 10-41 3-17v-6zm-56 77-1 10 2-3 1-6zm-2 11 1 2zm-2 6-5 18 1 4 5-17v-5zm-6 22m45 9-3 6 1 3 5-1 25-1 2 1 10 1h12v-5l-5-1zm-31 2-2 1 1 3h8l1-4zm15 0-1 4 5-1 1-3zm-6 17-13 38-19 49-2 7 4 1 6-12 13-29 10-25 7-25v-4zm-7 0-10 1-5 15-14 56-3 10v7l3-1 15-39 10-28 6-18v-3zm-26 3-3 7-5 20 1 4 3-8 3-9 2-9v-5zm-9 31m0 4-2 2-3 12 3-1 4-10-1-3zm-7 23 1 2zm-1 3-3 10v5l2-4 2-7zm-4 15-1 7 2-3zm-2 7 1 4zm-1 5 1 3zm-1 3 1 3zm-1 7m-1 3 1 2z" fill="#1D8878"/>
<path transform="translate(1586,45)" d="m0 0 8 1 6 3 7 8 4 13 1 11-3 20-7 33-8 23-18 47-12 29-16 36-13 29-12 27-14 26-11 19-9 12-9 10-8 7-4 16-1 3-1 18v19l2 9 6 10 4 3 11-3 16-8 11-7 13-11 11-9 11-10 8-7 12-11 14-12 13-12 8-7 6-6 3 1-3 7-13 13-13 12-11 9-14 12-10 9-5 5-5 6 8-7 2-2 7-3 4-1-2 4-21 21-1 4 8-8 8-7 5-4 14-14 2 1-34 34-10 8-14 10-11 5-7 2h-14l-10-4-6-4-6-5-8-11-6-12-4-20v-11l2-9v-18l-1-9 5-8 7-32 2-16 7-30 7-26 12-42 10-32 15-43 9-21 18-35 11-18 12-17 11-13 8-7zm3 13-8 6-10 10-10 15-9 16-6 14-9 26-9 21-16 42-5 12-1 9-12 38-7 28-3 9-4 25-4 18v6l4-1 11-18 29-58 17-37 15-34 14-32 15-44 8-29 4-23 1-17-1-2zm-45 43m-1 1 1 2zm-1 2-9 17 1 2 9-17zm52 1-1 5 3-1v-4zm-62 18 1 2zm-1 2-1 4 2-1zm-2 5m-1 1 1 2zm-1 3m58 1-6 15-9 24-9 19-13 32-8 18-8 16-3 7-12 25-9 16v3l4-2 8-14 1-4h3l10-16 8-16 16-34 7-20 6-15 7-14 3-11 2-8 1-5 1-8 2-8z" fill="#18DCD2"/>
<path transform="translate(61,211)" d="m0 0h374l1 2-12 151-4 52-1 15v13l43 17 10 4 2 2v28l-1 1h-448l-1-1v-32l6-4 29-11 12-4h2l-7-103-4-70-3-47v-11zm6 7v16l5 84 5 81 3 43h330l10-123 8-100-1-1zm8 232-41 14-4 2v23h436l1-1v-11l-1-1h-197l-1 3-39 1-1-4h-150v-6l382 1 1-2-18-8-28-11z" fill="#910534"/>
<path transform="translate(1366,231)" d="m0 0 9 1 10 5 2 4-7 8-10 10-12 17-10 18-14 23-14 26-12 25-8 16-9 21-4 12 13-2 7-3 2 1v2l4-2 17-4 10-4 10-2 20-6 2-3h2v2l11-4 15-6 6-4-7 3-3-1 5-3 23-9 8-2h8v2l-15 9-7 4-8 4-22 8-9 3 12-3 34-11 4 1-10 5-26 11-27 10-25 8-27 9-30 11-6 3h-2v2l10 3 20 8 13 7 12 11 9 12 7 14 5 17 1 6v14l-5 24-4 12-9 19-13 23-9 14-11 12-9 8-10 6-10 3h-13l-11-4-9-7-7-11-6-15-4-17-1-9v-32l2-19 6-28 13-47 3-9v-4l-22-9-6-6v-10l1-1 19 1 13-3 10-5 4-8 7-17 8-16 13-28 18-35 14-28 13-23 6-10 14-20 6-7zm47 148m-4 1m-33 21m-11 3-11 3v1l12-1 1-3zm-19 5-6 2 3 1 5-1v-2zm-17 5m-3 1m-12 3 2 3 4-1v-2zm-48 43-4 8-7 22-6 19-9 40-3 18v22l1 7-3 1 1 5h2v14l2 13 4 11 3 3 3 1h11l9-3 13-10 11-10 12-8 9-9 4-2 1-3h-3l4-5v-2h2l10-15 8-16 6-16 2-8v-15l-3-12-2-2-1 19-3 16-8 16-10 17 3-10 8-21 4-20v-19l-3-13-7-13-9-8-18-6-29-6z" fill="#15AFA2"/>
<path transform="translate(926,361)" d="m0 0 5 1 10 7 4 7-1 4-9 4-4 4-9 21-5 20-1 6v35l1 3 18-13 16-12 18-12 11-8 18-12 18-14 12-10 10-8 11-9 4-3h2l-1 8-7 11-12 13-7 5-5 5-8 4-8 6 2-1 22-12h2l-1 3-10 8-12 10-27 18-13 9-18 14-14 10-11 9-9 8v9l5 30 1 10v26l-4 13-7 12-4 5-10 7-12 6-9 2h-8l-8-3-7-6-8-12-6-15-3-13v-8l3-10 9-16 12-16 12-14 8-8 1-2h2v-2l8-7 3-4 1-7-1-8 1-8v-17l2-30 2-11 9-21 6-11 8-9zm102 42v3zm-12 5-3 5h5l3-3-1-2zm-4 5m6 0m-7 1-9 7-3 3h2l-3 6-6 3-11 9 1 2 11-7 7-6 5-4-1-4 4-2 4-5zm-14 10-1 2h3v-2zm-4 2-6 5h3l6-4zm-7 6m-8 3-4 6h4l4-2-1-4zm-9 6-6 4-8 7 1 4-3-3-13 9v3l3 4 6-2 13-10 9-7 2-2-1-7zm-32 23-9 7-3 5 2 3h-6l1-3-5 1 1 8 4 1 11-9 6-4 3-4zm-34 48-6 5v2h-2l-7 8-10 11-7 10-7 12-5 15-2 10v6l4 4 10 1 11-4 11-6 6-7 6-12 3-13 1-8v-12l-3-20-1-2z" fill="#1D8777"/>
<path transform="translate(1934,368)" d="m0 0h10l16 3 13 4 15 2h13l9-2h10l-2 5-6 8-5 3-12 1-19-3-27-7-5 1-9 10-8 13-13 29-12 22-10 14-8 7-2 1h-11l-7-6-5-8-3-11-1-25-6 3-11 14-14 21-8 10-5 5-10 9-6 3h-7l-8-4-9-12-2-4 1-14 7-30 6-22 8-21 8-16 2-1h9l8 4 3 3 1 9-6 11-9 20-9 27-6 23 5-1 10-10 11-16 9-10 10-13 7-6 2-1h9l10 5 6 7 3 10 1 18 1 5 8-11 6-10 11-22 5-12 8-16 7-9 6-5z" fill="#19DDD3"/>
<path transform="translate(748,362)" d="m0 0 10 1 10 4 5 4 4 8 1 8-4 13 6-2h9l4 4 3 8-1 10-1 3-2 17-1 5v8l17-4 13-5 15-8 17-12 13-11 13-12 19-19 4-1-3 9-10 16-11 11-14 11-12 11-18 10-11 7h2l10-4 9-6 13-10 12-8 14-12 4-1-3 5-12 12-11 9-17 12-15 9-19 10-3 1h-14l-8-4-6-9-1-11v-26l-9 5-14 11-16 15-10 10-10 7-13 6-8 2-7-1-5-5-8-14 1-8 7-20 12-23 12-17 10-13 5-6 10-6zm7 23-14 7-12 11-9 11-8 13-12 23-1 6 5-2 11-7 13-11 8-7 8-8 16-14 1-3-2-16-1-3zm129 16-12 11-26 20-19 12-7 4v2l4-1 17-10 18-12 9-7 12-11 6-7z" fill="#1D8777"/>
<path transform="translate(1652,358)" d="m0 0h16l14 5 9 6 4 5 3 9v10l-3 12 31-9 29-10 16-7 5 1 2 3-1 4-10 6-9 5-4-1-16 5-5 1 11-2 6-2 4 1-4 3-15 6-21 6-24 7-5 3-5 10-8 12-7 9-10 9-7 3-9 1-9-3-8-7-6-12-1-3v-23l5-14 6-10 4-5 2-15 4-8 4-5 9-5zm20 11-8 4-9 7-3 4-3 11-3 5 1 5 9 3 5 1h10l3-2 6-18 1-8-3-9-5-3zm44 38-3 2 5 1 1 2 3-5zm-78 5-5 8-4 11-1 4v16l2 3 9-1 9-6 6-5 9-15-1-4-16-8-5-3z" fill="#19DDD3"/>
<path transform="translate(88,235)" d="m0 0h323v10l-10 135-3 38-2 6h-262l-1-4 1-1h258l1-19 5-67 6-75 1-14 1-3h-316l1 2 4 81v7l-5-1-2-24-3-57v-13z" fill="#910534"/>
<path transform="translate(926,361)" d="m0 0 5 1 10 7 4 7-1 4-9 4-4 4-9 21-5 20-1 6v35l1 3 18-13 16-12 18-12 11-8 18-12 18-14 12-10 10-8 11-9 4-3h2l-1 8-7 11-12 13-7 5-5 5-8 4-8 6v3h-2l-2-4 5-2 2-4v-1l-8 6-2 1 1 3-3 5-6 3-10 8v3l-4 3h-2v-2h-2l-1 2-1-7-8 4-8 7 2 5-3-1-2-2-13 9 3 4v2l2 1-4-1-4-4-8 6-3 5 1 3h-6l-1-2h-3l-1 2v-3l-4 1-2 2-1-4h-2l1 3-2 4v-4l-4-1v-2h-4l-1-2v-29l2-30 2-11 9-21 6-11 8-9zm102 42v3zm-12 5-3 5h5l3-3-1-2zm-4 5m6 0m-21 11-1 2h3v-2zm-4 2-6 5h3l6-4zm-7 6m-8 3-4 6h4l4-2-1-4z" fill="#1D8777"/>
<path transform="translate(1053,372)" d="m0 0h2l-1 8-7 11-12 13-7 5-5 5-8 4-8 6v3h-2l-2-4 5-2 2-4v-1l-8 6-2 1 1 3-3 5-6 3-10 8v3l-4 3h-2v-2h-2l-1 2-1-7-8 4-8 7 2 5-3-1-2-2-13 9 3 4v2l2 1-4-1-4-4-8 6-3 5 1 3h-6l-1-2h-3l-1 2v-3l-4 1-2 2-1-4h-2l1 3-2 4-1-8h3v-10l4-5 1-19 1-5h1l1 35 1 3 18-13 16-12 18-12 11-8 18-12 18-14 12-10 10-8 11-9zm-25 31v3zm-12 5-3 5h5l3-3-1-2zm-4 5m6 0m-21 11-1 2h3v-2zm-4 2-6 5h3l6-4zm-7 6m-8 3-4 6h4l4-2-1-4z" fill="#15AEA1"/>
<path transform="translate(918,369)" d="m0 0 1 2 5 2-2 6-4 15-3 3-3 12v5h-2l-1 5-3 4h-2l-2 5-2 2-1 5h-1l1-21 2-11 9-21 6-11z" fill="#15ADA0"/>
<path transform="translate(980,428)" d="m0 0 2 1-1 5-7 1v6l-5-1v2l-6 4-7 6 2 5-3-1-2-2-13 9 3 4v2l2 1-4-1-4-4-8 6-3 5 1 3h-6l-1-2h-3l-1 2v-3l-4 1-2 2-1-4h-2l1 3-2 4-1-8h3v-10l4-5 1-19 1-5h1l1 35 1 3 18-13 16-12 18-12z" fill="#1B9182"/>
<path transform="translate(900,381)" d="m0 0h2l-3 9-10 16-9 9-3-2 2-4 6-7-8 6-9 8-10 8-15 11-4 2 1-4 17-12 12-11 8-7 21-21z" fill="#15AEA1"/>
<path transform="translate(914,435)" d="m0 0h1l1 35 1 3 8-5 2 1v5 3 2h-6l-1-2h-3l-1 2v-3l-4 1-2 2-1-4h-2l1 3-2 4-1-8h3v-10l4-5 1-19z" fill="#15ADA0"/>
<path transform="translate(878,503)" d="m0 0 1 2 4 2-4 6-3 1v2l-2 1-4 6-4 5-4-1-2-4 9-10 7-8z" fill="#15AEA1"/>
<path transform="translate(617,318)" d="m0 0h2l-1 14-2 1v7l-2 5v5l-2 1-4 17-2 2 1-11 7-34z" fill="#19988A"/>
<path transform="translate(896,469)" d="m0 0 2 4v2h4v2h2l1 10-4 4-5-2-3-1 3-4 1-7z" fill="#15AEA1"/>
<path transform="translate(856,532)" d="m0 0h4v6l-6 8-3-1 1-7-1-2 2-3z" fill="#15ADA0"/>
<path transform="translate(1159,246)" d="m0 0 1 3-9 22-2-1 1-5 7-17z" fill="#15B0A3"/>
<path transform="translate(1471,480)" d="m0 0 11 4 1 3h2l-1 3-5-1-8-6z" fill="#15B4A7"/>
<path transform="translate(837,435)" d="m0 0h2l-2 4-13 8-4 1 1-4 15-8z" fill="#1A9384"/>
<path transform="translate(1031,411)" d="m0 0h2l-1 3-10 8-5-2 5-4z" fill="#15AC9F"/>
<path transform="translate(1414,376)" d="m0 0 3 1 2 2-6 2-7 1-7 3-3-1 5-3z" fill="#17CCC1"/>
<path transform="translate(1449,385)" d="m0 0h3l1 6-3 5-4-4 1-5z" fill="#15AEA1"/>
<path transform="translate(1460,335)" d="m0 0 4 2v7l-4 4h-1v-11z" fill="#15B0A4"/>
<path transform="translate(802,230)" d="m0 0 6 1v3l-4 2-7-1v-2l5-1z" fill="#199789"/>
<path transform="translate(609,349)" d="m0 0 2 4-3 15-2 2 1-11z" fill="#15AA9D"/>
<path transform="translate(612,341)" d="m0 0h3l-1 9-4 3v-10z" fill="#189B8D"/>
<path transform="translate(617,318)" d="m0 0h2l-2 9-3 1 2-9z" fill="#1B9182"/>
<path transform="translate(1587,412)" d="m0 0v3l-8 7-2-1z" fill="#19DDD3"/>
<path transform="translate(1038,405)" d="m0 0 3 1-6 5-2-1z" fill="#15AEA1"/>
<path transform="translate(1570,426)" d="m0 0 2 1-4 4h-2v-2z" fill="#19DDD3"/>
<path transform="translate(1301,612)" d="m0 0v3l-3 3 2-5z" fill="#17CDC2"/>
<path transform="translate(605,370)" d="m0 0h1v6h-1z" fill="#15AEA1"/>
<path transform="translate(1576,428)" d="m0 0 2 1-3 2z" fill="#19DDD3"/>
<path transform="translate(1579,425)" d="m0 0 2 1-3 2z" fill="#19DDD3"/>
<path transform="translate(1575,422)" d="m0 0h2v2l-3-1z" fill="#19DDD3"/>
<path transform="translate(604,376)" d="m0 0 1 4z" fill="#15AEA1"/>
<path transform="translate(1315,602)" d="m0 0" fill="#19DDD3"/>
<path transform="translate(1302,611)" d="m0 0" fill="#19DDD3"/>
<path transform="translate(1303,609)" d="m0 0" fill="#19DDD3"/>
<path transform="translate(1304,608)" d="m0 0" fill="#19DDD3"/>
<path transform="translate(1305,606)" d="m0 0" fill="#19DDD3"/>
<path transform="translate(928,474)" d="m0 0" fill="#15AEA1"/>
<path transform="translate(1572,425)" d="m0 0" fill="#19DDD3"/>
<path transform="translate(1573,424)" d="m0 0" fill="#19DDD3"/>
<path transform="translate(1582,422)" d="m0 0" fill="#19DDD3"/>
<path transform="translate(887,414)" d="m0 0" fill="#15AEA1"/>
</svg>
